<svg width="36" height="40" viewBox="0 0 36 40" fill="none" xmlns="http://www.w3.org/2000/svg">
<path fill-rule="evenodd" clip-rule="evenodd" d="M14.2923 2.49624C14.8866 1.03232 16.3228 0 18 0C19.6773 0 21.1134 1.03232 21.7077 2.49624C27.6403 4.12143 32 9.55159 32 16V25.3944L35.6641 30.8906C36.0732 31.5043 36.1114 32.2934 35.7634 32.9437C35.4153 33.594 34.7376 34 34 34H24.9291C24.4439 37.3923 21.5265 40 18 40C14.4735 40 11.5561 37.3923 11.0709 34H2C1.26241 34 0.584692 33.594 0.236654 32.9437C-0.111384 32.2934 -0.0732391 31.5043 0.335902 30.8906L4 25.3944V16C4 9.55159 8.35966 4.12143 14.2923 2.49624ZM15.1707 34C15.5825 35.1652 16.6938 36 18 36C19.3062 36 20.4175 35.1652 20.8293 34H15.1707ZM18 6C12.4772 6 8 10.4772 8 16V26C8 26.3948 7.88313 26.7809 7.6641 27.1094L5.73704 30H30.263L28.3359 27.1094C28.1169 26.7809 28 26.3948 28 26V16C28 10.4772 23.5229 6 18 6Z" fill="white"/>
</svg>
