<svg width="15" height="15" viewBox="0 0 15 15" fill="none" xmlns="http://www.w3.org/2000/svg">
<rect width="13.9422" height="13.9422" transform="translate(0.71385 0.713867)" fill="white"/>
<path fill-rule="evenodd" clip-rule="evenodd" d="M14.0983 7.83646C14.0983 7.36274 14.0558 6.90725 13.9769 6.46997H7.68495V9.05416H11.2803C11.1255 9.88923 10.6548 10.5968 9.94725 11.0705V12.7467H12.1063C13.3695 11.5837 14.0983 9.87101 14.0983 7.83646Z" fill="#4285F4"/>
<path fill-rule="evenodd" clip-rule="evenodd" d="M7.68487 14.3652C9.48864 14.3652 11.0009 13.7669 12.1062 12.7466L9.94717 11.0704C9.34895 11.4712 8.58372 11.7081 7.68487 11.7081C5.94487 11.7081 4.4721 10.5329 3.94676 8.95386H1.71483V10.6847C2.81409 12.8681 5.07336 14.3652 7.68487 14.3652Z" fill="#34A853"/>
<path fill-rule="evenodd" clip-rule="evenodd" d="M3.94684 8.95409C3.81323 8.55325 3.73731 8.12509 3.73731 7.68477C3.73731 7.24446 3.81323 6.81629 3.94684 6.41546V4.68457H1.71491C1.26245 5.58645 1.00433 6.60677 1.00433 7.68477C1.00433 8.76278 1.26245 9.7831 1.71491 10.685L3.94684 8.95409Z" fill="#FBBC05"/>
<path fill-rule="evenodd" clip-rule="evenodd" d="M7.68487 3.66121C8.66571 3.66121 9.54634 3.99828 10.2387 4.66027L12.1548 2.74415C10.9979 1.66614 9.4856 1.00415 7.68487 1.00415C5.07336 1.00415 2.81409 2.50122 1.71483 4.68456L3.94676 6.41545C4.4721 4.8364 5.94487 3.66121 7.68487 3.66121Z" fill="#EA4335"/>
</svg>
