<svg width="46" height="40" viewBox="0 0 46 40" fill="none" xmlns="http://www.w3.org/2000/svg">
<path fill-rule="evenodd" clip-rule="evenodd" d="M22.6541 3.46074C17.3172 -1.32097 9.10978 -1.14751 3.98114 3.98114C-1.32705 9.28932 -1.32705 17.8956 3.98114 23.2038L19.4503 38.673C21.2197 40.4424 24.0885 40.4423 25.8579 38.673L41.327 23.2038C46.6352 17.8956 46.6352 9.28932 41.327 3.98114C36.1984 -1.14751 27.991 -1.32097 22.6541 3.46074ZM20 7.18491C16.4612 3.64612 10.7237 3.64612 7.18491 7.18491C3.64612 10.7237 3.64612 16.4612 7.18491 20L22.6541 35.4692L38.1233 20C41.6621 16.4612 41.6621 10.7237 38.1233 7.18491C34.5845 3.64612 28.847 3.64612 25.3082 7.18491L24.256 8.23712C23.3713 9.12181 21.9369 9.12181 21.0522 8.23712L20 7.18491Z" fill="#FCB426"/>
</svg>
