<svg width="43" height="40" viewBox="0 0 43 40" fill="none" xmlns="http://www.w3.org/2000/svg">
<path fill-rule="evenodd" clip-rule="evenodd" d="M19.654 0.53177C20.4516 -0.177257 21.6537 -0.177257 22.4513 0.53177L41.3987 17.3739C42.2677 18.1463 42.346 19.477 41.5735 20.346C40.8011 21.215 39.4704 21.2933 38.6014 20.5209L37.8948 19.8928V35.7895C37.8948 38.1149 36.0096 40 33.6842 40H8.42108C6.09567 40 4.21055 38.1149 4.21055 35.7895V19.8928L3.50395 20.5209C2.63493 21.2933 1.30425 21.215 0.531792 20.346C-0.240666 19.477 -0.162391 18.1463 0.706625 17.3739L19.654 0.53177ZM8.42108 16.1501V35.7895H14.7369V25.2632C14.7369 24.1005 15.6794 23.1579 16.8421 23.1579H25.2632C26.4259 23.1579 27.3684 24.1005 27.3684 25.2632V35.7895H33.6842V16.1501L21.0527 4.92201L8.42108 16.1501ZM23.1579 35.7895V27.3684H18.9474V35.7895H23.1579Z" fill="#FCB426"/>
</svg>
