<svg width="44" height="43" viewBox="0 0 44 43" fill="none" xmlns="http://www.w3.org/2000/svg">
<path fill-rule="evenodd" clip-rule="evenodd" d="M42.4265 1.14215C42.9621 1.67781 43.1492 2.47015 42.9096 3.18882L30.1817 41.3726C29.9377 42.1045 29.2945 42.6309 28.5287 42.7251C27.7629 42.8194 27.0112 42.4648 26.597 41.8139L16.9361 26.6325L1.75475 16.9716C1.10382 16.5574 0.749213 15.8057 0.843485 15.0399C0.937754 14.2742 1.46409 13.6309 2.19604 13.3869L40.3798 0.658993C41.0985 0.419437 41.8908 0.606482 42.4265 1.14215ZM20.9335 25.4635L27.7157 36.1214L36.4358 9.96128L20.9335 25.4635ZM33.6073 7.13285L18.1051 22.6351L7.44727 15.8529L33.6073 7.13285Z" fill="#FCB426"/>
</svg>
