<svg width="40" height="40" viewBox="0 0 40 40" fill="none" xmlns="http://www.w3.org/2000/svg">
<path fill-rule="evenodd" clip-rule="evenodd" d="M20 4C18.8954 4 18 4.89543 18 6C18 9.38451 13.908 11.0795 11.5148 8.68627C10.7337 7.90522 9.46739 7.90522 8.68634 8.68627C7.90529 9.46732 7.90529 10.7337 8.68634 11.5147C11.0796 13.908 9.38445 18 6 18C4.89543 18 4 18.8954 4 20C4 21.1046 4.89543 22 6 22C9.38472 22 11.0793 26.0922 8.68621 28.4853C7.90516 29.2663 7.90516 30.5327 8.68621 31.3137C9.46726 32.0948 10.7336 32.0948 11.5146 31.3137C13.9078 28.9206 18 30.6153 18 34C18 35.1046 18.8954 36 20 36C21.1046 36 22 35.1046 22 34C22 30.6154 26.0921 28.9204 28.4853 31.3137C29.2664 32.0947 30.5327 32.0947 31.3138 31.3137C32.0948 30.5326 32.0948 29.2663 31.3138 28.4853C28.9206 26.0921 30.6154 22 34 22C35.1046 22 36 21.1046 36 20C36 18.8954 35.1046 18 34 18C30.6157 18 28.9203 13.9081 31.3136 11.5147C32.0947 10.7337 32.0947 9.46735 31.3136 8.68631C30.5326 7.90526 29.2662 7.90526 28.4852 8.68631C26.0919 11.0796 22 9.38439 22 6C22 4.89543 21.1046 4 20 4ZM14.0163 5.55406C14.2445 2.4486 16.8363 0 20 0C23.1637 0 25.7555 2.4486 25.9837 5.55406C28.3409 3.51953 31.905 3.62081 34.1421 5.85788C36.3791 8.09497 36.4804 11.6591 34.4458 14.0163C37.5513 14.2444 40 16.8362 40 20C40 23.1637 37.5514 25.7555 34.4459 25.9837C36.4805 28.3409 36.3793 31.905 34.1422 34.1421C31.9051 36.3792 28.3409 36.4805 25.9837 34.4458C25.7556 37.5513 23.1638 40 20 40C16.8363 40 14.2444 37.5513 14.0163 34.4458C11.6591 36.4805 8.0949 36.3793 5.85778 34.1422C3.62068 31.9051 3.51944 28.3409 5.55405 25.9837C2.4486 25.7555 0 23.1637 0 20C0 16.8362 2.44866 14.2444 5.55417 14.0163C3.51957 11.6591 3.62081 8.09494 5.85791 5.85784C8.09499 3.62076 11.6591 3.5195 14.0163 5.55406Z" fill="#FCB426"/>
<path fill-rule="evenodd" clip-rule="evenodd" d="M20 16C18.9391 16 17.9217 16.4214 17.1716 17.1716C16.4214 17.9217 16 18.9391 16 20C16 21.0609 16.4214 22.0783 17.1716 22.8284C17.9217 23.5786 18.9391 24 20 24C21.0609 24 22.0783 23.5786 22.8284 22.8284C23.5786 22.0783 24 21.0609 24 20C24 18.9391 23.5786 17.9217 22.8284 17.1716C22.0783 16.4214 21.0609 16 20 16ZM14.3431 14.3431C15.8434 12.8429 17.8783 12 20 12C22.1217 12 24.1566 12.8429 25.6569 14.3431C27.1571 15.8434 28 17.8783 28 20C28 22.1217 27.1571 24.1566 25.6569 25.6569C24.1566 27.1571 22.1217 28 20 28C17.8783 28 15.8434 27.1571 14.3431 25.6569C12.8429 24.1566 12 22.1217 12 20C12 17.8783 12.8429 15.8434 14.3431 14.3431Z" fill="#FCB426"/>
</svg>
